<svg xmlns="http://www.w3.org/2000/svg" width="864" height="358"><path d="m62.78 682.67-22.85 99.66h220.75c-6.55-.57-11.72-2.87-14.8-7.06a14.91 14.91 0 0 1-2.21-4.43c-.66-2.09-.92-4.4-.8-6.88.32-6.88 3.55-15.07 9.15-23.64 5.94-9.11 14.56-18.66 25.22-27.52a164.4 164.4 0 0 1 7.45-5.85c3.2-2.36 6.43-4.52 9.65-6.55 11.88-7.48 23.73-12.71 34.23-15.37-10.03 3.27-21.3 8.83-32.44 16.4l-1.2.82a144.97 144.97 0 0 0-16.66 13.42c-15.72 14.78-24.03 30.1-20.26 39.08.27.61.6 1.2.97 1.76 4.06 5.97 14.12 7 26.86 3.8a103.69 103.69 0 0 0 15.48-5.44 125.72 125.72 0 0 0 3.57-1.64c14.06-6.99 24.86-15.02 27.2-19.85.5-1.05.63-1.94.28-2.65-1.67-3.38-13.34-1.1-27.48 5.03-1.14.5-2.29 1-3.45 1.54a109.6 109.6 0 0 1 7.97-6.69 97.83 97.83 0 0 1 8.3-5.66c12.9-9.73 19.4-18.92 18.05-22.33-.26-.65-.8-1.09-1.64-1.36-2.69-.85-7.6.17-13.55 2.6a102.23 102.23 0 0 0-16.28 8.73l-.78.51-.14.09-2.75 1.82 1.58-2.9c2.35-4.28 6.17-8.76 10.92-12.92a77.55 77.55 0 0 1 21.57-13.22c4.71-1.86 9.9-4.22 13.82-4.52-.36 0-11.7 1.22-11.7 1.22H62.78zm177.93.14c-.64 9.82 1.26 24.21 5.58 40.19a223.02 223.02 0 0 0 4.3 14c-.36.52-.72 1.03-1.05 1.55-5.4 8.27-8.55 16.08-9.34 22.87-2.28-7.63-4-16-4.97-24.86-.27-2.54-.5-5.05-.64-7.53-1.06-18.02 1.3-34.36 6.12-46.22zm-107.6 12.79h24.64c2.08 0 3.68.39 4.83 1.17 1.13.78 1.56 1.8 1.29 3.03l-2.9 13.08h-8.55l2.8-12.73H133.8l-7.74 34.98-2.79 12.66h21.4l.03-.08 4.29-19.38h-10.06l.97-4.37h18.61l-5.33 24.18c-.08.34-.2.65-.37.96-.44.8-1.21 1.5-2.28 2.06a11.31 11.31 0 0 1-5.34 1.17h-24.26c-2.07 0-3.68-.4-4.82-1.17-1.14-.79-1.57-1.78-1.3-3.02l10.7-48.34c.27-1.23 1.14-2.25 2.63-3.03l.16-.07a11.2 11.2 0 0 1 4.8-1.1zm38.04 0h30.57c2.04 0 3.65.39 4.8 1.17 1.15.78 1.59 1.8 1.31 3.03l-5.7 25.78c-.27 1.23-1.15 2.23-2.65 3.02s-3.26 1.19-5.32 1.19h-22.2l-4.3 19.35-.7 3.19h-8.37l.64-2.88 11.92-53.85zm42.22 0h8.38l-9.49 42.83-2.07 9.36h20.03c.21 1.54.46 3.04.72 4.54h-30.13l2.38-10.76 10.18-45.97zm-34.85 4.55-5.56 25.08h20.87l5.55-25.08h-20.86zm-44.5 59.2h.24c.97 0 1.82.17 2.5.49.73.34 1.25.85 1.54 1.52.29.65.36 1.39.2 2.2l-.05.3h-2.4l.02-.28c.06-.57-.01-1.01-.23-1.32a1.4 1.4 0 0 0-.1-.12 1.33 1.33 0 0 0-.2-.17 2.96 2.96 0 0 0-1.55-.32c-.9 0-1.57.15-2.03.47-.45.3-.73.65-.82 1.07-.1.42.06.64.16.75l.03.03c.13.1.59.37 2.03.71 1.3.32 2.16.6 2.64.85.74.37 1.25.85 1.52 1.45s.33 1.29.17 2.03c-.17.73-.54 1.4-1.09 2.04a5.5 5.5 0 0 1-2.07 1.47 7 7 0 0 1-2.67.54 6.66 6.66 0 0 1-2.87-.54 3.3 3.3 0 0 1-1.67-1.7 4.18 4.18 0 0 1-.2-2.48l.06-.3h2.36l-.02.3c-.06.54 0 .98.14 1.31.14.32.4.58.82.78a4.52 4.52 0 0 0 3.2.06 2.8 2.8 0 0 0 1.1-.65c.25-.28.4-.57.47-.89.06-.28.05-.52-.07-.72-.12-.2-.37-.4-.76-.55l-2-.6a9.04 9.04 0 0 1-2.33-.82c-.6-.35-1.02-.8-1.25-1.35a2.92 2.92 0 0 1-.1-1.79c.15-.7.49-1.36 1-1.95a5 5 0 0 1 2.02-1.37 7.07 7.07 0 0 1 2.25-.45zm21.54.04h.4l1.47.16.5.04-.72 1.83-.15.29-1.13-.1c-.33 0-.57.05-.74.16l-.04.04a.72.72 0 0 0-.08.08c-.1.13-.22.36-.3.78l-.09.33h1.77l-.45 2.03h-1.73l-1.74 7.82h-2.38l1.74-7.82h-1.37l.45-2.03h1.35l.17-.64c.14-.65.3-1.12.49-1.45a3.1 3.1 0 0 1 2.58-1.52zm5.69.1-.78 3.51h1.54l-.45 2.03h-1.54l-1.11 4.95s-.08.53-.08.68v.04h.02l.24.02 1.13-.08-.12 1.82.02.33-1.62.19c-.64 0-1.12-.11-1.46-.33a1.45 1.45 0 0 1-.65-.95c-.02-.07-.05-.17-.05-.33 0-.3.06-.8.25-1.66l1.05-4.68h-1.13l.45-2.03h1.13l.47-2.1 1.9-1 .79-.4zm-75.63.08h9.23l-.5 2.3h-6.76l-.68 3.04h5.85l-.51 2.3H86.4l-1.25 5.64h-2.49l2.96-13.28zm12.37 3.25c.1-.02.2 0 .3 0 .58 0 1.13.18 1.65.55l.33.23-1.27 2.09-.35-.25a1.5 1.5 0 0 0-.82-.24c-.25 0-.48.09-.72.24-.25.17-.46.38-.61.68-.28.5-.48 1.07-.62 1.68l-1.1 5.05h-2.39l2.2-9.85h2.21l-.1.41.3-.25c.33-.19.66-.3 1-.34zm7.06 0h.44c1.34 0 2.35.47 3.01 1.4.42.59.64 1.33.64 2.2 0 .5-.06 1.02-.19 1.59l-.18.72h-6.7l-.01.4c0 .52.1.92.33 1.22.1.14.23.27.37.37.26.17.6.26 1 .26.49 0 .91-.13 1.31-.39.39-.24.75-.63 1.07-1.17h2.55l-.23.5a5.44 5.44 0 0 1-4.99 3.14c-1.45 0-2.53-.47-3.2-1.4-.66-.9-.8-2.16-.45-3.73a6.8 6.8 0 0 1 2.1-3.78 5.3 5.3 0 0 1 3.13-1.33zm10.7 0h.43c1.34 0 2.35.47 3.02 1.4.4.59.63 1.33.63 2.2 0 .49-.06 1-.18 1.57l-.19.74h-6.69l-.02.26v.15l.02.28c.03.38.13.7.3.93l.11.14c.3.32.73.5 1.27.5.49 0 .92-.14 1.32-.4.38-.24.74-.63 1.07-1.17h2.56l-.25.5a5.44 5.44 0 0 1-4.99 3.14c-1.44 0-2.52-.47-3.2-1.4a3.7 3.7 0 0 1-.63-2.24c0-.13 0-.28.02-.43.03-.34.08-.68.16-1.06a6.8 6.8 0 0 1 2.08-3.78 5.3 5.3 0 0 1 3.16-1.33zm29.12 0c.15-.02.28 0 .43 0 1.37 0 2.42.46 3.1 1.37.68.91.84 2.15.5 3.7a7.57 7.57 0 0 1-1.2 2.89 5.6 5.6 0 0 1-4.5 2.28c-1.38 0-2.42-.48-3.09-1.4a3.67 3.67 0 0 1-.66-2.24c0-.48.06-1 .19-1.58.4-1.76 1.2-3.1 2.38-3.96a5.55 5.55 0 0 1 2.85-1.06zm36.06 0h.52c.82 0 1.47.08 1.97.28.52.21.9.51 1.1.87.2.33.31.74.31 1.25l-.24 1.5-.46 2.03a22.4 22.4 0 0 0-.49 2.62c-.02.33.01.65.1.95l.17.53h-2.42l-.1-.3c-.05-.15-.03-.33-.05-.5a5.8 5.8 0 0 1-3.22 1c-1.12 0-1.94-.28-2.44-.85a2.18 2.18 0 0 1-.56-1.52 3.42 3.42 0 0 1 .72-2.07 4.04 4.04 0 0 1 2.44-1.53l1.46-.24c1.12-.13 1.96-.3 2.57-.47l.04-.15c.1-.42.08-.74-.02-.9l-.04-.04-.09-.08c-.24-.2-.66-.3-1.23-.3-.63 0-1.1.11-1.43.32-.33.2-.62.57-.89 1.1h-2.48l.23-.49a5.3 5.3 0 0 1 1.08-1.68 4.53 4.53 0 0 1 1.73-1c.53-.18 1.1-.3 1.72-.33zm10.4 0c.1-.02.2 0 .3 0 .6 0 1.15.18 1.68.55l.3.23-1.27 2.09-.35-.25a1.45 1.45 0 0 0-.8-.24c-.25 0-.5.09-.73.24-.25.17-.44.38-.6.68a6.7 6.7 0 0 0-.62 1.68l-1.12 5.05h-2.39l2.2-9.85h2.22l-.08.41c.1-.08.2-.19.3-.25.32-.19.64-.3.97-.34zm7.05 0h.43c1.34 0 2.36.47 3.02 1.4.42.59.63 1.33.63 2.2 0 .5-.08 1.02-.2 1.59l-.17.72h-6.69c-.01.13-.04.28-.04.4a2 2 0 0 0 .33 1.22l.12.14.08.08c.3.27.7.41 1.2.41.48 0 .9-.13 1.3-.39.39-.24.75-.63 1.08-1.17h2.56l-.25.5a5.44 5.44 0 0 1-4.99 3.14c-1.44 0-2.5-.47-3.17-1.4-.67-.9-.82-2.16-.48-3.73a6.78 6.78 0 0 1 2.08-3.78c.93-.8 2-1.25 3.16-1.33zm-35.94.18h2.44l.31 5.93.18-.4 2.7-5.53h2.23l.2 5.8c.07-.1 3.06-5.8 3.06-5.8H176l-5.34 9.85h-2.2l-.22-5.64-2.75 5.64h-2.26l-.78-9.85zm-57.34 1.87a2.6 2.6 0 0 0-1.56.61c-.39.3-.64.72-.85 1.17h4.05l.02-.22c0-.38-.07-.67-.19-.86-.29-.48-.71-.7-1.35-.7h-.12zm10.69 0a2.6 2.6 0 0 0-1.56.61c-.38.3-.63.72-.84 1.17h4.04l.02-.22c0-.38-.06-.67-.18-.86a2.1 2.1 0 0 0-.2-.27 1.52 1.52 0 0 0-1.16-.43h-.12zm82.71 0c-.58.02-1.12.21-1.62.61-.37.3-.63.72-.84 1.17h4.02l.02-.22c0-.38-.06-.67-.18-.86-.29-.47-.72-.7-1.36-.7h-.04zm-53.77.04c-.55.06-1.05.31-1.52.74a4.44 4.44 0 0 0-1.21 2.38c-.1.45-.15.83-.15 1.17 0 .47.1.83.27 1.1a1.6 1.6 0 0 0 1.38.68c.66 0 1.24-.24 1.8-.75.57-.52.97-1.34 1.21-2.43.23-1 .2-1.74-.12-2.21-.3-.46-.74-.68-1.35-.68h-.31zm37.08 3.6c-.55.14-1.18.27-2 .38a7.6 7.6 0 0 0-1.32.29c-.22.09-.4.22-.55.39-.15.16-.25.33-.3.53l-.01.23v.08l.02.1.02.04.02.06.04.07.06.08c.17.18.5.27.97.27a3 3 0 0 0 2.57-1.28c.19-.27.35-.7.48-1.25zM56.45 752.03l55.08-56.87h9l-13.3 56.87h-7.4l3.78-16.37H80.5l-15.69 16.37h-8.37m29.68-22.22H105l3.49-14.28c1.4-5.66 2.76-10.38 4.06-14.16a178.1 178.1 0 0 1-10.32 11.6l-16.11 16.84" style="fill:#636" transform="translate(-88.25 -1761.2) scale(2.5964)"/><path d="m242.27 772 .81 2.04c.43.91.93 1.78 1.52 2.6 3.21 4.36 8.59 6.75 15.41 7.34h7.35a63.9 63.9 0 0 0 7.27-1 91.83 91.83 0 0 0 13.75-3.91c3.63-1.32 7.36-2.89 11.14-4.7a157.57 157.57 0 0 0 25.1-15.2 166.66 166.66 0 0 0 14.59-12.08c5.94-5.72 10.42-11.53 12.96-16.64 2.64-5.3 3.17-9.85 1-12.72-1.32-1.75-3.55-2.7-6.4-2.92 12.88-9.66 20.39-21.4 17.7-28.79-.86-2.36-2.74-4.12-5.44-5.1-1.2-.42-2.55-.7-4.02-.82h-3.97c-5.54.4-13.59 2.38-20.42 5.73" style="fill:none;stroke:#636;stroke-width:3.28386545;stroke-linecap:butt;stroke-linejoin:miter;stroke-miterlimit:4" transform="translate(-88.25 -1761.2) scale(2.5964)"/><path d="M.27 357.65h12.72l5.71-23.87h20.67l2.66-10.23H21.28l3.44-15.35h22.09l2.66-11.94H14.59L.27 357.65zm57.06 0 3.82-16.03c2-8.68 6.25-16.37 14.29-16.37.71 0 1.41.36 1.94.44l3.1-12.29c-.71 0-1.5-.09-2.38-.09-5.92 0-10.88 4.17-14.2 10.13h-.33a156 156 0 0 0 1.24-8.42H53.85c-.63 3.55-1.6 10.49-3.09 16.75l-6.24 25.88h12.8zm56.57-11.51c-3.52 1.72-7.55 1.28-12.24 1.28-3.7 0-6.56-.65-8.13-1.91a9.9 9.9 0 0 1-1.1-4.91c17.28.46 28.18-3.53 28.72-14.45.41-8.23-5.6-12.84-14.35-12.84-15.62 0-25.86 13.78-26.52 27.05-.58 11.58 5.42 17.29 17.8 17.29 4.76 0 11.07-.55 16.24-2.1l-.41-9.41zm-4.67-19.99c-.2 4.06-5.21 4.3-15.09 4.22 1.08-3.57 4.7-6.82 10.6-6.82 2.92 0 4.6 1.1 4.5 2.6zm49.88 19.99c-3.53 1.72-7.55 1.28-12.22 1.28-3.72 0-6.57-.65-8.14-1.91a9.92 9.92 0 0 1-1.1-4.91c17.28.46 28.16-3.53 28.73-14.45.4-8.23-5.61-12.84-14.36-12.84-15.64 0-25.87 13.78-26.54 27.05-.56 11.58 5.44 17.29 17.8 17.29 4.78 0 11.1-.55 16.26-2.1l-.43-9.41zm-4.65-19.99c-.2 4.06-5.22 4.3-15.11 4.22 1.09-3.57 4.69-6.82 10.6-6.82 2.92 0 4.6 1.1 4.5 2.6zm70.47 31.5c.1-5.4 1.4-13.9 2.75-19.47l5.47-23.16c-3.48-1.18-8.9-1.7-14.12-1.7-21.18 0-31.68 15.68-32.41 30.38-.46 9.23 4.53 13.95 12.3 13.95 5.04 0 10.72-2.44 15.13-9.77h.2c-.35 3.53-.76 6.96-.98 9.77h11.66zm-8.74-24.35c-2.5 10.84-7.58 14.12-11.36 14.12-3.53 0-5.07-2.5-4.86-6.16.4-8.23 6.92-17.71 15.14-17.71 1.33 0 2.37-.24 3.34-.48l-2.26 10.23zm17.08 22.34c2.46 1.9 7.6 1.93 12.98 2.01 11.47.09 20.14-4.93 20.65-14.14.29-6.13-4.47-9.77-9.12-12.2-3.36-1.63-5.05-3.18-4.97-4.98.12-2.44 2.4-2.78 5.77-2.78 3.78 0 6.82.46 8.56.8l3.44-9.24c-1.96-1.18-5.88-1.8-10.91-1.8-11.14 0-19.29 5.89-19.75 14.82-.27 5.53 3.7 9.25 8.51 11.77 3.89 2 5.22 3.53 5.12 5.7-.12 2.18-2.07 1.82-5.6 1.82-4.14 0-8.73-.55-11.15-.92l-3.53 9.14zm68.04 2.01 10.32-42.63h-12.64l-10.38 42.63h12.7zm5.92-47.75c4.33 0 8.18-3.58 8.42-9.72.2-4.16-2.49-5.62-6.46-5.62-4.15 0-7.93 2.7-8.15 6.72-.2 4.05 2.49 8.62 6.19 8.62zm18.47 47.75 4.5-19.2c2.33-9.77 7.36-13.2 11.5-13.2 3.28 0 4.24 1.4 4.08 3.43a30.48 30.48 0 0 1-.68 4.9l-5.73 24.07h12.72l6.04-25.25c.46-2.19.97-5.44 1.07-7.42.38-7.7-3.46-10.49-10.52-10.49-5.66 0-11.17 2.63-15.52 8.32H333l1.16-7.79h-11.22c-.73 3.65-1.67 8.07-3 13.22l-6.96 29.41h12.72zm54.73 0h12.72l5.73-23.87h20.65l2.66-10.23h-20.75l3.45-15.35h22.08l2.66-11.94h-34.87l-14.33 61.39zm57.06 0 3.82-16.03c2.01-8.68 6.26-16.37 14.29-16.37.71 0 1.41.36 1.94.44l3.1-12.29c-.71 0-1.5-.09-2.38-.09-5.92 0-10.88 4.17-14.19 10.13h-.34a156 156 0 0 0 1.24-8.42h-10.96c-.61 3.55-1.6 10.49-3.09 16.75l-6.24 25.88h12.8zm56.58-11.51c-3.53 1.72-7.56 1.28-12.25 1.28-3.7 0-6.56-.65-8.13-1.91a9.9 9.9 0 0 1-1.1-4.91c17.28.46 28.18-3.53 28.73-14.45.4-8.23-5.61-12.84-14.36-12.84-15.62 0-25.85 13.78-26.52 27.05-.58 11.58 5.44 17.29 17.8 17.29 4.76 0 11.09-.55 16.24-2.1l-.41-9.41zm-4.67-19.99c-.2 4.06-5.22 4.3-15.1 4.22 1.08-3.57 4.7-6.82 10.61-6.82 2.92 0 4.59 1.1 4.49 2.6zm49.87 19.99c-3.53 1.72-7.55 1.28-12.22 1.28-3.72 0-6.57-.65-8.14-1.91a9.92 9.92 0 0 1-1.1-4.91c17.29.46 28.17-3.53 28.73-14.45.4-8.23-5.61-12.84-14.36-12.84-15.64 0-25.87 13.78-26.53 27.05-.57 11.58 5.44 17.29 17.8 17.29 4.77 0 11.08-.55 16.25-2.1l-.43-9.41zm-4.65-19.99c-.2 4.06-5.22 4.3-15.11 4.22 1.1-3.57 4.69-6.82 10.6-6.82 2.92 0 4.61 1.1 4.5 2.6zm55.2-31.59-4.8 19.37c-1.73-.72-4-.62-5.78-.62-16.33 0-27.9 13.99-28.66 29.13-.51 10.67 5.18 15.21 12.52 15.21 5.13 0 10.53-2.27 14.63-8.13h.17l-.98 8.13h11.57a149.5 149.5 0 0 1 2.88-16.76l11.07-46.33h-12.62zm-9.96 41.64c-2 8.4-6.7 11.22-10.42 11.22-3.7 0-5.76-2.58-5.5-7.16.42-8.5 6.25-16.71 13.84-16.71 2.13 0 3.95.32 4.96.8l-2.88 11.85zm38.96 21.45c14.84 0 26.28-11.24 27.08-26.53.5-10.13-5.81-17.8-17.46-17.8-15.38 0-26.41 12.44-27.18 27.48-.53 10.95 6.53 16.85 17.56 16.85zm2-10.23c-4.33 0-6.72-2.76-6.47-6.89.35-6.87 4.6-16.98 11.9-16.98 5.05 0 6.6 3.87 6.4 7.67-.37 7.5-4.94 16.2-11.83 16.2zm40.88 10.23 4.61-19.47c1.93-8.68 6.74-14.63 11.05-14.63 3.1 0 3.96 2.26 3.8 5.23a34.65 34.65 0 0 1-.78 4.96l-5.7 23.91h12.28l4.6-19.56c2.12-8.95 6.66-14.54 10.89-14.54 2.91 0 4.12 2.08 3.99 5.04a27.69 27.69 0 0 1-.89 5.34l-5.53 23.72h12.37l5.95-25.25c.46-2.27.99-5.8 1.07-7.6.38-7.51-3.29-11.49-9.9-11.49-5.67 0-11.17 2.56-15.35 7.95-.15-3.89-2.93-7.95-9.82-7.95-5.58 0-10.9 2.53-15.16 8.24H669l1.14-6.53H659.2a219.4 219.4 0 0 1-2.91 13.22l-6.86 29.41h12.28z" style="fill:#636"/></svg>